<svg width="22" height="22" viewBox="0 0 22 22" fill="none" xmlns="http://www.w3.org/2000/svg">
<path d="M10.25 3C10.25 3.19891 10.329 3.38968 10.4697 3.53033C10.6103 3.67098 10.8011 3.75 11 3.75C11.1989 3.75 11.3897 3.67098 11.5303 3.53033C11.671 3.38968 11.75 3.19891 11.75 3H10.25ZM11.75 1C11.75 0.801088 11.671 0.610322 11.5303 0.46967C11.3897 0.329018 11.1989 0.25 11 0.25C10.8011 0.25 10.6103 0.329018 10.4697 0.46967C10.329 0.610322 10.25 0.801088 10.25 1H11.75ZM10.25 21C10.25 21.1989 10.329 21.3897 10.4697 21.5303C10.6103 21.671 10.8011 21.75 11 21.75C11.1989 21.75 11.3897 21.671 11.5303 21.5303C11.671 21.3897 11.75 21.1989 11.75 21H10.25ZM11.75 19C11.75 18.8011 11.671 18.6103 11.5303 18.4697C11.3897 18.329 11.1989 18.25 11 18.25C10.8011 18.25 10.6103 18.329 10.4697 18.4697C10.329 18.6103 10.25 18.8011 10.25 19H11.75ZM3 11.75C3.19891 11.75 3.38968 11.671 3.53033 11.5303C3.67098 11.3897 3.75 11.1989 3.75 11C3.75 10.8011 3.67098 10.6103 3.53033 10.4697C3.38968 10.329 3.19891 10.25 3 10.25V11.75ZM1 10.25C0.801088 10.25 0.610322 10.329 0.46967 10.4697C0.329018 10.6103 0.25 10.8011 0.25 11C0.25 11.1989 0.329018 11.3897 0.46967 11.5303C0.610322 11.671 0.801088 11.75 1 11.75V10.25ZM21 11.75C21.1989 11.75 21.3897 11.671 21.5303 11.5303C21.671 11.3897 21.75 11.1989 21.75 11C21.75 10.8011 21.671 10.6103 21.5303 10.4697C21.3897 10.329 21.1989 10.25 21 10.25V11.75ZM19 10.25C18.8011 10.25 18.6103 10.329 18.4697 10.4697C18.329 10.6103 18.25 10.8011 18.25 11C18.25 11.1989 18.329 11.3897 18.4697 11.5303C18.6103 11.671 18.8011 11.75 19 11.75V10.25ZM5.87 17.19C5.94369 17.1213 6.00279 17.0385 6.04378 16.9465C6.08477 16.8545 6.10681 16.7552 6.10859 16.6545C6.11037 16.5538 6.09184 16.4538 6.05412 16.3604C6.0164 16.267 5.96026 16.1822 5.88904 16.111C5.81782 16.0397 5.73299 15.9836 5.6396 15.9459C5.54621 15.9082 5.44618 15.8896 5.34548 15.8914C5.24477 15.8932 5.14546 15.9152 5.05346 15.9562C4.96146 15.9972 4.87866 16.0563 4.81 16.13L5.87 17.19ZM3.4 17.54C3.32631 17.6087 3.26721 17.6915 3.22622 17.7835C3.18523 17.8755 3.16319 17.9748 3.16141 18.0755C3.15963 18.1762 3.17816 18.2762 3.21588 18.3696C3.2536 18.463 3.30974 18.5478 3.38096 18.619C3.45218 18.6903 3.53701 18.7464 3.6304 18.7841C3.72379 18.8218 3.82382 18.8404 3.92452 18.8386C4.02523 18.8368 4.12454 18.8148 4.21654 18.7738C4.30854 18.7328 4.39134 18.6737 4.46 18.6L3.4 17.54ZM17.19 16.13C17.1213 16.0563 17.0385 15.9972 16.9465 15.9562C16.8545 15.9152 16.7552 15.8932 16.6545 15.8914C16.5538 15.8896 16.4538 15.9082 16.3604 15.9459C16.267 15.9836 16.1822 16.0397 16.111 16.111C16.0397 16.1822 15.9836 16.267 15.9459 16.3604C15.9082 16.4538 15.8896 16.5538 15.8914 16.6545C15.8932 16.7552 15.9152 16.8545 15.9562 16.9465C15.9972 17.0385 16.0563 17.1213 16.13 17.19L17.19 16.13ZM17.54 18.6C17.6087 18.6737 17.6915 18.7328 17.7835 18.7738C17.8755 18.8148 17.9748 18.8368 18.0755 18.8386C18.1762 18.8404 18.2762 18.8218 18.3696 18.7841C18.463 18.7464 18.5478 18.6903 18.619 18.619C18.6903 18.5478 18.7464 18.463 18.7841 18.3696C18.8218 18.2762 18.8404 18.1762 18.8386 18.0755C18.8368 17.9748 18.8148 17.8755 18.7738 17.7835C18.7328 17.6915 18.6737 17.6087 18.6 17.54L17.54 18.6ZM4.46 3.4C4.31783 3.26752 4.12978 3.1954 3.93548 3.19882C3.74118 3.20225 3.55579 3.28097 3.41838 3.41838C3.28097 3.55579 3.20225 3.74118 3.19882 3.93548C3.1954 4.12978 3.26752 4.31783 3.4 4.46L4.46 3.4ZM4.81 5.87C4.95217 6.00248 5.14022 6.0746 5.33452 6.07118C5.52882 6.06775 5.71421 5.98903 5.85162 5.85162C5.98903 5.71421 6.06775 5.52882 6.07118 5.33452C6.0746 5.14022 6.00248 4.95217 5.87 4.81L4.81 5.87ZM11.75 3V1H10.25V3H11.75ZM11.75 21V19H10.25V21H11.75ZM3 10.25H1V11.75H3V10.25ZM21 10.25H19V11.75H21V10.25ZM4.81 16.13L3.4 17.54L4.46 18.6L5.87 17.19L4.81 16.13ZM17.54 3.4L16.13 4.81L17.19 5.87L18.6 4.46L17.54 3.4ZM16.13 17.19L17.54 18.6L18.6 17.54L17.19 16.13L16.13 17.19ZM3.4 4.46L4.81 5.87L5.87 4.81L4.46 3.4L3.4 4.46ZM14.25 11C14.25 11.862 13.9076 12.6886 13.2981 13.2981C12.6886 13.9076 11.862 14.25 11 14.25V15.75C12.2598 15.75 13.468 15.2496 14.3588 14.3588C15.2496 13.468 15.75 12.2598 15.75 11H14.25ZM11 14.25C10.138 14.25 9.3114 13.9076 8.7019 13.2981C8.09241 12.6886 7.75 11.862 7.75 11H6.25C6.25 12.2598 6.75045 13.468 7.64124 14.3588C8.53204 15.2496 9.74022 15.75 11 15.75V14.25ZM7.75 11C7.75 10.138 8.09241 9.3114 8.7019 8.7019C9.3114 8.09241 10.138 7.75 11 7.75V6.25C9.74022 6.25 8.53204 6.75045 7.64124 7.64124C6.75045 8.53204 6.25 9.74022 6.25 11H7.75ZM11 7.75C11.862 7.75 12.6886 8.09241 13.2981 8.7019C13.9076 9.3114 14.25 10.138 14.25 11H15.75C15.75 9.74022 15.2496 8.53204 14.3588 7.64124C13.468 6.75045 12.2598 6.25 11 6.25V7.75Z" fill="black"/>
</svg>
