<svg width="21" height="23" viewBox="0 0 21 23" fill="none" xmlns="http://www.w3.org/2000/svg">
<path d="M9.41602 0.0849991L8.96601 1.76C8.66601 2.876 8.69602 4.097 9.03602 5.364C9.30336 6.36228 9.78843 7.28898 10.4564 8.07756C11.1244 8.86614 11.9587 9.49703 12.8994 9.92494C13.8401 10.3528 14.8639 10.5671 15.8972 10.5525C16.9306 10.5378 17.9478 10.2945 18.876 9.84L20.417 9.088L20.314 10.798C20.251 11.832 19.939 12.858 19.394 13.948L18.948 14.842L17.158 13.947L17.606 13.053C17.7387 12.7877 17.8513 12.5343 17.944 12.293C15.6574 12.8545 13.2418 12.4975 11.2153 11.2986C9.18885 10.0997 7.71289 8.15446 7.10402 5.88C6.84898 4.95166 6.73504 3.99024 6.76602 3.028C5.11283 3.85034 3.795 5.21921 3.03604 6.90244C2.27709 8.58566 2.12374 10.4796 2.60202 12.263C2.61902 12.324 2.68702 12.514 2.77602 12.743L2.88102 13.01L2.91402 13.092L2.92402 13.114L2.92602 13.121L3.30402 14.047L1.45202 14.803L1.07402 13.877L1.07102 13.867L1.06102 13.843L1.02402 13.753L0.911015 13.465C0.820722 13.2407 0.740639 13.0125 0.671015 12.781C-0.759985 7.447 2.40601 1.964 7.74002 0.533999L9.41602 0.0849991ZM0.501015 16.5H6.50102V18.5H0.501015V16.5ZM8.50102 16.5H20.501V18.5H8.50102V16.5ZM15.501 20.5H20.501V22.5H15.501V20.5ZM0.501015 20.5H13.501V22.5H0.501015V20.5Z" fill="black"/>
</svg>
